<svg width="1024" height="1024" viewBox="0 0 1024 1024" fill="none" xmlns="http://www.w3.org/2000/svg" xmlns:xlink="http://www.w3.org/1999/xlink" class=""><g transform="scale(1.2161520190023753)"><rect id="r9" width="842" height="842" x="0" y="0" rx="128" fill="url(#ra)" stroke="#FFFFFF" stroke-width="0" stroke-opacity="100%" paint-order="stroke"></rect><clipPath id="clip"><use xlink:href="#r9"></use></clipPath><defs><linearGradient id="ra" gradientUnits="userSpaceOnUse" gradientTransform="rotate(135)" style="transform-origin: center center;"><stop stop-color="#91EAE4"></stop><stop offset="1" stop-color="#7F7FD5"></stop></linearGradient><radialGradient id="rb" cx="0" cy="0" r="1" gradientUnits="userSpaceOnUse" gradientTransform="translate(256) rotate(90) scale(842)"><stop stop-color="white"></stop><stop offset="1" stop-color="white" stop-opacity="0"></stop></radialGradient></defs><svg xmlns="http://www.w3.org/2000/svg" xmlns:xlink="http://www.w3.org/1999/xlink" width="842" height="842" viewBox="0 0 241.351 381.875" x="0" y="0" alignment-baseline="middle" style="color: rgb(255, 255, 255);"><path d="M114.117 66.0508L114.117 61.0234L116.367 61.0234L116.367 63.2734L73.4414 63.2734L73.4414 61.0234L75.6914 61.0234L75.6914 66.0508L73.4414 66.0508L73.6778 63.8132L90.6263 65.6036L90.6675 67.5861Q90.9492 81.1447 90.9492 108.836L90.9492 111.086L32.5898 111.086L32.5898 108.836Q32.5898 80.9892 33.0482 67.5561L33.1149 65.6008L50.0371 63.8132L50.2734 66.0508L48.0234 66.0508L48.0234 61.0234L50.2734 61.0234L50.2734 63.2734L7.48828 63.2734L7.48828 61.0234L9.73828 61.0234L9.73828 66.0508L7.48828 66.0508L7.72464 63.8132L24.654 65.6015L24.7138 67.5643Q25.1367 81.4499 25.1367 109.539L25.1367 117.484Q25.1367 145.574 24.7138 159.284L24.6534 161.242L7.72983 163.069L7.48828 160.832L9.73828 160.832L9.73828 166L7.48828 166L7.48828 163.75L50.2734 163.75L50.2734 166L48.0234 166L48.0234 160.832L50.2734 160.832L50.0319 163.069L33.1141 161.242L33.0482 159.291Q32.5898 145.718 32.5898 114.883L32.5898 112.633L90.9492 112.633L90.9492 114.883Q90.9492 145.879 90.6675 159.437L90.6259 161.439L73.657 163.072L73.4414 160.832L75.6914 160.832L75.6914 166L73.4414 166L73.4414 163.75L116.367 163.75L116.367 166L114.117 166L114.117 160.832L116.367 160.832L116.128 163.069L99.0056 161.242L98.9653 159.261Q98.6836 145.421 98.6836 117.484L98.6836 109.539Q98.6836 81.3211 98.9653 67.5867L99.006 65.6012L116.134 63.8129L116.367 66.0508L114.117 66.0508ZM118.617 68.0781L101.448 69.8707L101.215 67.6328L103.464 67.679Q103.184 81.3674 103.184 109.539L103.184 117.484Q103.184 145.375 103.464 159.169L101.215 159.215L101.454 156.978L118.617 158.809L118.617 168.25L71.1914 168.25L71.1914 158.788L88.2024 157.151L88.418 159.391L86.1685 159.344Q86.4492 145.832 86.4492 114.883L88.6992 114.883L88.6992 117.133L34.8398 117.133L34.8398 114.883L37.0898 114.883Q37.0898 145.642 37.5456 159.139L35.2969 159.215L35.5384 156.978L52.5234 158.812L52.5234 168.25L5.23828 168.25L5.23828 158.812L22.2233 156.978L22.4648 159.215L20.2159 159.145Q20.6367 145.504 20.6367 117.484L20.6367 109.539Q20.6367 81.5184 20.2159 67.7013L22.4648 67.6328L22.2285 69.8704L5.23828 68.0756L5.23828 58.7734L52.5234 58.7734L52.5234 68.0756L35.5332 69.8704L35.2969 67.6328L37.5456 67.7095Q37.0898 81.0655 37.0898 108.836L34.8398 108.836L34.8398 106.586L88.6992 106.586L88.6992 108.836L86.4492 108.836Q86.4492 81.1911 86.1685 67.6796L88.418 67.6328L88.1816 69.8704L71.1914 68.0756L71.1914 58.7734L118.617 58.7734L118.617 66.0508L118.617 68.0781ZM116.367 66.0508L101.215 67.6328C100.934 81.3438 100.934 95.3008 100.934 109.539L100.934 117.484C100.934 131.301 100.934 145.398 101.215 159.215L116.367 160.832L116.367 166L73.4414 166L73.4414 160.832L88.418 159.391C88.6992 145.855 88.6992 131.723 88.6992 114.883L34.8398 114.883C34.8398 131.582 34.8398 145.68 35.2969 159.215L50.2734 160.832L50.2734 166L7.48828 166L7.48828 160.832L22.4648 159.215C22.8867 145.539 22.8867 131.582 22.8867 117.484L22.8867 109.539C22.8867 95.582 22.8867 81.4844 22.4648 67.6328L7.48828 66.0508L7.48828 61.0234L50.2734 61.0234L50.2734 66.0508L35.2969 67.6328C34.8398 81.0273 34.8398 94.8789 34.8398 108.836L88.6992 108.836C88.6992 95.0195 88.6992 81.168 88.418 67.6328L73.4414 66.0508L73.4414 61.0234L116.367 61.0234L116.367 66.0508ZM207.122 139.187L203.062 161.781L156.815 161.781L156.744 159.605Q156.286 145.576 156.286 115.445L156.286 113.195L185.855 113.195L188.118 130.267L185.887 130.562L185.887 128.312L191.794 128.312L191.794 130.562L189.544 130.562L189.544 94.1406L191.794 94.1406L191.794 96.3906L185.887 96.3906L185.887 94.1406L188.116 94.4482L185.704 111.93L156.286 111.93L156.286 109.68Q156.286 80.8489 156.744 67.2756L156.818 65.1016L200.167 65.1016L204.377 87.6814L202.165 88.0938L202.165 85.8438L209.231 85.8438L209.231 88.0938L206.983 88.1784L205.963 61.1081L208.212 61.0234L208.212 63.2734L131.184 63.2734L131.184 61.0234L133.434 61.0234L133.434 66.0508L131.184 66.0508L131.421 63.8132L148.35 65.6015L148.41 67.5643Q148.833 81.4499 148.833 109.539L148.833 117.484Q148.833 145.574 148.41 159.284L148.349 161.242L131.426 163.069L131.184 160.832L133.434 160.832L133.434 166L131.184 166L131.184 163.75L211.094 163.75L211.094 166L208.846 165.916L209.866 138.705L212.114 138.789L212.114 141.039L204.907 141.039L204.907 138.789L207.122 139.187ZM203.025 136.539L214.45 136.539L213.262 168.25L128.934 168.25L128.934 158.812L145.919 156.978L146.161 159.215L143.912 159.145Q144.333 145.504 144.333 117.484L144.333 109.539Q144.333 81.5184 143.912 67.7013L146.161 67.6328L145.925 69.8704L128.934 68.0756L128.934 58.7734L210.379 58.7734L211.568 90.3438L200.296 90.3438L196.086 67.7639L198.298 67.3516L198.298 69.6016L158.993 69.6016L158.993 67.3516L161.242 67.4275Q160.786 80.9248 160.786 109.68L158.536 109.68L158.536 107.43L183.743 107.43L183.743 109.68L181.514 109.372L183.927 91.8906L194.044 91.8906L194.044 132.812L183.916 132.812L181.653 115.741L183.884 115.445L183.884 117.695L158.536 117.695L158.536 115.445L160.786 115.445Q160.786 145.502 161.242 159.458L158.993 159.531L158.993 157.281L201.18 157.281L201.18 159.531L198.966 159.133L202.692 138.391L203.025 136.539ZM204.907 138.789L212.114 138.789L211.094 166L131.184 166L131.184 160.832L146.161 159.215C146.583 145.539 146.583 131.582 146.583 117.484L146.583 109.539C146.583 95.582 146.583 81.4844 146.161 67.6328L131.184 66.0508L131.184 61.0234L208.212 61.0234L209.231 88.0938L202.165 88.0938L198.298 67.3516L158.993 67.3516C158.536 80.8867 158.536 95.0195 158.536 109.68L183.743 109.68L185.887 94.1406L191.794 94.1406L191.794 130.562L185.887 130.562L183.884 115.445L158.536 115.445C158.536 131.441 158.536 145.539 158.993 159.531L201.18 159.531L204.907 138.789Z" fill="currentColor" fill-opacity="1.000000" transform="matrix(1 0 0 1 6.54224 168.429)"></path><path d="M42.836 42.836M3.4043e-06 42.836C-0.00195831 48.5177 1.08353 53.9834 3.25645 59.2332C5.42938 64.4829 8.52428 69.1169 12.5411 73.1352C16.558 77.1534 21.191 80.2499 26.44 82.4247C31.689 84.5994 37.1543 85.6868 42.836 85.6868C48.5177 85.6868 53.983 84.5994 59.2321 82.4247C64.4811 80.2499 69.114 77.1534 73.1309 73.1352C77.1478 69.1169 80.2426 64.4829 82.4156 59.2332C84.5885 53.9834 85.674 48.5177 85.672 42.836C85.672 37.1556 84.5851 31.6914 82.4113 26.4434C80.2375 21.1954 77.1423 16.563 73.1256 12.5464C69.109 8.52972 64.4766 5.43449 59.2286 3.2607C53.9806 1.0869 48.5164 0 42.836 0C37.1556 0 31.6914 1.0869 26.4434 3.2607C21.1954 5.43449 16.563 8.52972 12.5464 12.5464C8.52973 16.563 5.4345 21.1954 3.26071 26.4434C1.08691 31.6914 1.06643e-05 37.1556 1.02129e-05 42.836L3.4043e-06 42.836L3.4043e-06 42.836Z" fill="currentColor" fill-opacity="1.000000" transform="matrix(1 0 0 1 54.0416 120.675)"></path><path d="M0 0L0 128.508L19.0382 128.508L19.0382 38.0764L71.3933 52.3551L71.3933 19.0382L0 0L0 0Z" fill="currentColor" fill-opacity="1.000000" transform="matrix(1 0 0 1 120.675 35.0034)"></path><path d="M42.836 42.836M3.4043e-06 42.836C-0.00195831 48.5177 1.08353 53.9834 3.25645 59.2332C5.42938 64.4829 8.52428 69.1169 12.5411 73.1352C16.558 77.1534 21.191 80.2499 26.44 82.4247C31.689 84.5994 37.1543 85.6868 42.836 85.6868C48.5177 85.6868 53.983 84.5994 59.2321 82.4247C64.4811 80.2499 69.114 77.1534 73.1309 73.1352C77.1478 69.1169 80.2426 64.4829 82.4156 59.2332C84.5885 53.9834 85.674 48.5177 85.672 42.836C85.672 37.1556 84.5851 31.6914 82.4113 26.4434C80.2375 21.1954 77.1423 16.563 73.1256 12.5464C69.109 8.52972 64.4766 5.43449 59.2286 3.2607C53.9806 1.0869 48.5164 0 42.836 0C37.1556 0 31.6914 1.0869 26.4434 3.2607C21.1954 5.43449 16.563 8.52972 12.5464 12.5464C8.52973 16.563 5.4345 21.1954 3.26071 26.4434C1.08691 31.6914 1.06643e-05 37.1556 1.02129e-05 42.836L3.4043e-06 42.836L3.4043e-06 42.836Z" fill="currentColor" fill-opacity="1.000000" transform="matrix(1 0 0 1 54.0416 120.675)"></path><path d="M0 0L0 128.508L19.0382 128.508L19.0382 38.0764L71.3933 52.3551L71.3933 19.0382L0 0L0 0Z" fill="currentColor" fill-opacity="1.000000" transform="matrix(1 0 0 1 120.675 35.0034)"></path></svg></g></svg>
